<svg width="64" height="64" viewBox="0 0 64 64" xmlns="http://www.w3.org/2000/svg">
  <rect width="64" height="64" rx="12" fill="#1C1C1A"/>
  <g fill="#C5A55A">
    <path d="M32 19c1.7 0 3 1.35 3 3 0 1.05-.55 1.98-1.38 2.52l2.18 1.28-2.55.18 1.05 1.45-2.3-.66V43h-2V26.85l-2.3.66 1.05-1.45-2.55-.18 2.18-1.28A2.99 2.99 0 0 1 29 22c0-1.65 1.3-3 3-3z"/>
    <path d="M30.2 25.6c-2.5.5-4.95 1.7-7.3 3.5-2.55 1.95-4.9 4.6-7 7.8 2.55-1.8 4.95-2.85 7.15-3.4-1.6 1.65-3.05 3.8-4.3 6.35 2.25-1.9 4.35-3.15 6.3-3.85-.95 1.55-1.8 3.45-2.5 5.7 2.55-2.4 5-3.95 7.45-4.8-.5-1.3-.75-2.7-.75-4.2 0-2.9.45-5.5 1.3-7.65-.18.07-.35.15-.55.2z"/>
    <path d="M33.8 25.6c2.5.5 4.95 1.7 7.3 3.5 2.55 1.95 4.9 4.6 7 7.8-2.55-1.8-4.95-2.85-7.15-3.4 1.6 1.65 3.05 3.8 4.3 6.35-2.25-1.9-4.35-3.15-6.3-3.85.95 1.55 1.8 3.45 2.5 5.7-2.55-2.4-5-3.95-7.45-4.8.5-1.3.75-2.7.75-4.2 0-2.9-.45-5.5-1.3-7.65.18.07.35.15.55.2z"/>
  </g>
</svg>
